<svg xmlns="http://www.w3.org/2000/svg" width="28" height="28" viewBox="0 0 24 24" fill="none" stroke="#0A84FF" stroke-width="1.6" stroke-linecap="round" stroke-linejoin="round">
  <path d="M8 4.5 a3 3 0 0 0 -3 3 a2.5 2.5 0 0 0 -1.5 4.5 a2.5 2.5 0 0 0 1 4.5 a3 3 0 0 0 3.5 2.5 V4.5 a2.5 2.5 0 0 0 0 0 Z"/>
  <path d="M16 4.5 a3 3 0 0 1 3 3 a2.5 2.5 0 0 1 1.5 4.5 a2.5 2.5 0 0 1 -1 4.5 a3 3 0 0 1 -3.5 2.5 V4.5 a2.5 2.5 0 0 1 0 0 Z"/>
  <path d="M12 4.5 V19.5"/>
  <circle cx="9" cy="9" r="0.8" fill="#0A84FF"/>
  <circle cx="15" cy="9" r="0.8" fill="#0A84FF"/>
  <circle cx="9" cy="14" r="0.8" fill="#0A84FF"/>
  <circle cx="15" cy="14" r="0.8" fill="#0A84FF"/>
</svg>
